<?xml version="1.0" encoding="UTF-8"?>
<svg version="1.1" xmlns="http://www.w3.org/2000/svg" width="493" height="493">
<path d="M0 0 C0.33 0.66 0.66 1.32 1 2 C2.65 2 4.3 2 6 2 C4.73755131 5.78734606 2.8768235 7.22535876 0 10 C-7.23574299 17.48231416 -14.22067841 25.111381 -20.71875 33.24609375 C-24.3787719 37.66444211 -28.31563258 41.82016149 -32.2265625 46.015625 C-36.53105514 50.63353761 -40.64312405 55.40761607 -44.73828125 60.2109375 C-45.76283092 61.41162041 -46.78757646 62.61213621 -47.8125 63.8125 C-48.32981689 64.41868164 -48.84713379 65.02486328 -49.38012695 65.64941406 C-52.58502229 69.3907082 -55.85209278 73.06115383 -59.1875 76.6875 C-62.35830742 80.14015696 -65.38035031 83.65530966 -68.3125 87.3125 C-72.3868385 92.36756423 -76.75101065 97.08026106 -81.19799805 101.8034668 C-85.25828307 106.13930722 -89.03520576 110.64067961 -92.75 115.27734375 C-95.28167606 118.34084759 -97.92795309 121.27000598 -100.625 124.1875 C-101.09043213 124.69176514 -101.55586426 125.19603027 -102.03540039 125.71557617 C-103.35602758 127.1445553 -104.67798557 128.57230418 -106 130 C-107.36215692 131.47181178 -108.71755093 132.94994718 -110.0625 134.4375 C-110.58972656 135.01371094 -111.11695313 135.58992187 -111.66015625 136.18359375 C-113.39398021 138.53411311 -114.4238368 140.10223801 -115 143 C-113.57962197 145.42002048 -112.2564478 147.22372469 -110.4375 149.3125 C-109.68944092 150.21621338 -109.68944092 150.21621338 -108.92626953 151.13818359 C-107.85404654 152.43194848 -106.77432601 153.71952879 -105.68798828 155.00146484 C-102.87014396 158.33772079 -100.12701852 161.73443194 -97.375 165.125 C-96.82336182 165.80071045 -96.27172363 166.4764209 -95.70336914 167.17260742 C-91.74662697 172.03125838 -87.96083426 176.98455704 -84.23046875 182.01953125 C-77.52935886 190.97390402 -70.47865101 199.66667933 -63.48339844 208.39160156 C-58.73055247 214.3242102 -54.03327089 220.29945472 -49.34570312 226.28369141 C-48.01892378 227.97586463 -46.68963877 229.66603377 -45.359375 231.35546875 C-40.2176391 237.88670992 -35.10011266 244.43619647 -30 251 C-21.8962789 261.42439191 -13.78801571 271.83402989 -5.4375 282.0625 C0.17792548 288.94308364 5.62084964 295.93327305 11 303 C12.64313685 305.14790849 14.28957724 307.29326168 15.9375 309.4375 C16.34838867 309.97213867 16.75927734 310.50677734 17.18261719 311.05761719 C22.07326874 317.40975528 27.03748785 323.70396464 32 330 C35.21361146 334.07717115 38.4237709 338.15696 41.62402344 342.24462891 C42.56579393 343.44607139 43.50923526 344.64620552 44.45410156 345.84521484 C45.86993598 347.6431825 47.27938347 349.44598483 48.6875 351.25 C49.12199463 351.79922119 49.55648926 352.34844238 50.00415039 352.91430664 C53 356.77188378 53 356.77188378 53 359 C53.66 359 54.32 359 55 359 C55.33 359.99 55.66 360.98 56 362 C52.93753253 363.78409802 50.77920727 364.22880021 47.25 364.125 C46.45078125 364.10695313 45.6515625 364.08890625 44.828125 364.0703125 C43.92320312 364.03550781 43.92320312 364.03550781 43 364 C43 363.67 43 363.34 43 363 C38.38 363 33.76 363 29 363 C29 363.33 29 363.66 29 364 C26.27119539 364.19555932 23.54228931 364.38170447 20.8125 364.5625 C20.04357422 364.61857422 19.27464844 364.67464844 18.48242188 364.73242188 C14.44996104 364.99202236 10.95206334 365.03597777 7 364 C6.67 364 6.34 364 6 364 C5.06414062 363.98259766 5.06414062 363.98259766 4.109375 363.96484375 C-0.7301088 363.88082446 -0.7301088 363.88082446 -5.5 364.5625 C-9.38411139 365.24221949 -13.12065932 364.54936197 -17 364 C-17 363.67 -17 363.34 -17 363 C-17.55349121 363.04302246 -18.10698242 363.08604492 -18.67724609 363.13037109 C-34.48552063 364.09433039 -34.48552063 364.09433039 -40.0625 359.44921875 C-42.24696192 356.53616209 -43.96663731 353.35105046 -45.71289062 350.16210938 C-48.13197085 346.0984951 -51.17134571 342.49537037 -54.125 338.8125 C-58.74961169 332.9460198 -63.22052505 327.0312972 -67.44921875 320.87109375 C-68.95207261 318.72229382 -68.95207261 318.72229382 -72 318 C-72 317.01 -72 316.02 -72 315 C-72.66 314.67 -73.32 314.34 -74 314 C-74.72693904 312.02111039 -75.39816251 310.02045442 -76 308 C-76.66 308 -77.32 308 -78 308 C-79.6670218 305.86525266 -81.21963258 303.72971368 -82.75 301.5 C-83.65046213 300.21443763 -84.55150156 298.92927941 -85.453125 297.64453125 C-85.88947266 297.01885254 -86.32582031 296.39317383 -86.77539062 295.74853516 C-88.32201713 293.54021398 -89.89827795 291.35616822 -91.5 289.1875 C-91.9434375 288.58292969 -92.386875 287.97835938 -92.84375 287.35546875 C-93.97627214 285.84926074 -93.97627214 285.84926074 -96 285 C-96.95946528 283.32145834 -97.91560216 281.64086292 -98.84912109 279.94775391 C-100.71193335 276.79512001 -103.00531467 274.02254623 -105.3125 271.1875 C-109.29283652 266.22669341 -113.04766942 261.19801917 -116.5625 255.890625 C-118.03434965 253.74121583 -118.03434965 253.74121583 -121 252 C-121.69709521 250.68232003 -122.35946677 249.34608299 -123 248 C-124.1745301 246.3298755 -125.3888919 244.68757648 -126.625 243.0625 C-127.00760986 242.55726807 -127.39021973 242.05203613 -127.78442383 241.53149414 C-129.18538004 239.68440089 -130.59217149 237.84186084 -132 236 C-134.56317728 232.64634993 -137.12583664 229.29230668 -139.6875 225.9375 C-140.37279785 225.04063477 -141.0580957 224.14376953 -141.76416016 223.21972656 C-147.01100497 216.33745382 -152.15311048 209.38346623 -157.265625 202.40112305 C-160.72618797 197.68830382 -164.28145066 193.08376847 -167.98046875 188.5546875 C-172.49817823 182.8398287 -176.72332752 176.89614772 -181 171 C-180.83395264 172.25868896 -180.66790527 173.51737793 -180.49682617 174.81420898 C-179.66760003 183.17940861 -179.94965753 191.57844822 -180.05078125 199.97265625 C-180.07006239 201.82335686 -180.08911642 203.67405985 -180.10795593 205.52476501 C-180.14878255 209.39538886 -180.19396011 213.26593316 -180.24194336 217.13647461 C-180.30227344 222.0489223 -180.34936258 226.96139421 -180.39277363 231.87401676 C-180.42849196 235.69642732 -180.47267789 239.51870765 -180.51912498 243.34100151 C-180.53989302 245.1494996 -180.55787251 246.95803231 -180.5727787 248.76658821 C-180.8662016 282.71024521 -187.93519941 312.81684191 -212 338 C-234.03038662 359.37970009 -264.15633939 369.23168641 -294.4375 369.125 C-295.53126953 369.12886719 -296.62503906 369.13273437 -297.75195312 369.13671875 C-303.59709649 369.12968065 -309.2207813 368.88478925 -315 368 C-315.33 368.66 -315.66 369.32 -316 370 C-316 369.01 -316 368.02 -316 367 C-317.27875 366.95875 -318.5575 366.9175 -319.875 366.875 C-338.32895748 364.99034051 -354.78710344 355.3144962 -369 344 C-369.90878906 343.30583984 -369.90878906 343.30583984 -370.8359375 342.59765625 C-390.69866789 326.99122523 -401.26956394 300.04977782 -404.28759766 275.67749023 C-405.26132116 265.77859817 -405.15088477 255.85930309 -405.13037109 245.92358398 C-405.12494681 242.78169068 -405.13037593 239.63993619 -405.13671875 236.49804688 C-405.13605907 234.50520802 -405.1347802 232.51236925 -405.1328125 230.51953125 C-405.13483673 229.57801712 -405.13686096 228.63650299 -405.13894653 227.66645813 C-405.13579437 226.80433212 -405.13264221 225.94220612 -405.12939453 225.05395508 C-405.12859894 224.29294998 -405.12780334 223.53194489 -405.12698364 222.74787903 C-405 221 -405 221 -404 220 C-402.03630847 219.9059933 -400.06920801 219.88256619 -398.10327148 219.88647461 C-396.84203964 219.88655014 -395.5808078 219.88662567 -394.28135681 219.88670349 C-392.89460206 219.8918109 -391.50784771 219.89702691 -390.12109375 219.90234375 C-388.71004791 219.90420799 -387.29900143 219.90563186 -385.88795471 219.90663147 C-382.16759465 219.91045621 -378.4472734 219.9202861 -374.72692871 219.93133545 C-370.93319219 219.94155052 -367.13944942 219.94612929 -363.34570312 219.95117188 C-355.89711769 219.96190842 -348.44856428 219.9789843 -341 220 C-340.9906543 221.30445068 -340.98130859 222.60890137 -340.97167969 223.95288086 C-340.93126895 228.8754064 -340.86537883 233.79733985 -340.79248047 238.71948242 C-340.76456297 240.83431286 -340.74320607 242.94924197 -340.72900391 245.06420898 C-340.58569395 265.21836622 -339.23984604 285.95526996 -324.6484375 301.51171875 C-313.99718896 311.12813034 -302.84905232 312.84569378 -288.92578125 312.40234375 C-278.49952649 311.76204764 -270.56396611 307.71669286 -263.15234375 300.44921875 C-251.89794465 287.64248873 -248.68927838 271.24250634 -248.7215271 254.65473938 C-248.7128385 253.02355464 -248.7128385 253.02355464 -248.70397437 251.35941666 C-248.68707946 247.74519557 -248.68410693 244.13110298 -248.68115234 240.5168457 C-248.67184692 237.91426789 -248.66167734 235.31169305 -248.65071106 232.7091217 C-248.62852161 227.1211685 -248.61345856 221.53323335 -248.60334396 215.94524574 C-248.58870981 207.86612863 -248.56315995 199.78707448 -248.53501268 191.70799448 C-248.48963039 178.59774547 -248.45298034 165.48748735 -248.421875 152.37719727 C-248.39165428 139.64768883 -248.35728791 126.91820262 -248.31738281 114.1887207 C-248.31492126 113.40304383 -248.31245972 112.61736695 -248.30992357 111.80788169 C-248.29754829 107.86606364 -248.28509189 103.92424586 -248.27259517 99.98242819 C-248.1691557 67.32164898 -248.07991029 34.66084539 -248 2 C-244.24440607 1.34940742 -240.70090695 0.87419675 -236.88769531 0.87060547 C-235.91938782 0.86745331 -234.95108032 0.86430115 -233.95343018 0.86105347 C-232.92207947 0.8630777 -231.89072876 0.86510193 -230.828125 0.8671875 C-229.75052917 0.86623077 -228.67293335 0.86527405 -227.56268311 0.86428833 C-225.28657981 0.86360919 -223.01047455 0.8654449 -220.734375 0.86962891 C-217.27599659 0.87495993 -213.81774928 0.86968565 -210.359375 0.86328125 C-208.14062472 0.86394249 -205.92187451 0.86522459 -203.703125 0.8671875 C-202.67987122 0.86516327 -201.65661743 0.86313904 -200.60235596 0.86105347 C-183.08264719 0.91735281 -183.08264719 0.91735281 -181 3 C-180.89180852 4.61915924 -180.8531521 6.24300788 -180.84178162 7.86573792 C-180.82709839 9.4454538 -180.82709839 9.4454538 -180.81211853 11.05708313 C-180.80636307 12.22233017 -180.8006076 13.38757721 -180.79467773 14.58813477 C-180.78477814 15.80747711 -180.77487854 17.02681946 -180.76467896 18.28311157 C-180.73842821 21.63624606 -180.7165923 24.98935593 -180.69667697 28.34253049 C-180.67485523 31.84328389 -180.64744795 35.34399333 -180.62062073 38.8447113 C-180.57064213 45.47806466 -180.52572255 52.11144235 -180.48259836 58.74484342 C-180.43327005 66.29493329 -180.37833563 73.84497907 -180.32291877 81.39502633 C-180.20901944 96.92997683 -180.10219781 112.46496784 -180 128 C-177.75593767 125.27911769 -175.51266652 122.55758413 -173.26953125 119.8359375 C-172.63793091 119.07015381 -172.00633057 118.30437012 -171.35559082 117.51538086 C-167.47874691 112.81058365 -163.64034606 108.07846974 -159.84375 103.30859375 C-154.99024574 97.23143057 -150.05548023 91.22460164 -145.00756836 85.30810547 C-140.12973438 79.5904537 -135.39999366 73.78185745 -130.79150391 67.84448242 C-130.36788574 67.29896729 -129.94426758 66.75345215 -129.5078125 66.19140625 C-129.09821289 65.66305176 -128.68861328 65.13469727 -128.26660156 64.59033203 C-126.94339086 62.92892214 -125.56600863 61.32377513 -124.1796875 59.71484375 C-121.79131255 57.32033936 -121.79131255 57.32033936 -122 55 C-120.0324413 53.14000715 -117.94444402 51.46609802 -115.84765625 49.75390625 C-113.75201831 48.03994919 -113.75201831 48.03994919 -113 45 C-111.88421868 43.85040713 -110.76176967 42.70648441 -109.60546875 41.59765625 C-107.57078091 39.57286957 -105.6631402 37.45233186 -103.75 35.3125 C-103.06421875 34.54550781 -102.3784375 33.77851562 -101.671875 32.98828125 C-99.95377855 31.10201336 -99.95377855 31.10201336 -99 29 C-98.34 29 -97.68 29 -97 29 C-96.77570313 28.46632813 -96.55140625 27.93265625 -96.3203125 27.3828125 C-94.5612034 24.20808898 -92.24775769 21.5978367 -89.875 18.875 C-88.95415067 17.81126025 -88.03492718 16.74611126 -87.1171875 15.6796875 C-86.63808929 15.14563293 -86.15899109 14.61157837 -85.66537476 14.06134033 C-83.91645871 12.00743742 -83.91645871 12.00743742 -82.55752563 9.48748779 C-79.73357763 4.98054113 -77.63983735 2.39479113 -72.34689331 1.12051392 C-67.76138173 0.71239619 -63.18846568 0.87418561 -58.59375 1.0234375 C-56.9012878 1.04211202 -55.20877116 1.05633566 -53.51623535 1.0663147 C-49.08260221 1.10431833 -44.65229742 1.20237636 -40.2199707 1.31335449 C-35.68877183 1.41604974 -31.15702964 1.46140724 -26.625 1.51171875 C-17.74854541 1.61864812 -8.87455049 1.78908834 0 2 C0 1.34 0 0.68 0 0 Z " fill="#010202" transform="translate(419,56)"/>
<path d="M0 0 C-3.06246747 1.78409802 -5.22079273 2.22880021 -8.75 2.125 C-9.54921875 2.10695313 -10.3484375 2.08890625 -11.171875 2.0703125 C-11.77515625 2.04710937 -12.3784375 2.02390625 -13 2 C-13 1.67 -13 1.34 -13 1 C-17.62 1 -22.24 1 -27 1 C-27 1.33 -27 1.66 -27 2 C-29.72880461 2.19555932 -32.45771069 2.38170447 -35.1875 2.5625 C-36.34088867 2.64661133 -36.34088867 2.64661133 -37.51757812 2.73242188 C-41.55003896 2.99202236 -45.04793666 3.03597777 -49 2 C-49.33 2 -49.66 2 -50 2 C-50.62390625 1.98839844 -51.2478125 1.97679687 -51.890625 1.96484375 C-56.7301088 1.88082446 -56.7301088 1.88082446 -61.5 2.5625 C-65.38411139 3.24221949 -69.12065932 2.54936197 -73 2 C-73 1.67 -73 1.34 -73 1 C-79.27 0.67 -85.54 0.34 -92 0 C-92 -0.33 -92 -0.66 -92 -1 C-80.30014772 -1.1767793 -68.60019743 -1.34274753 -56.8999958 -1.49477577 C-51.46757996 -1.56570539 -46.03526986 -1.64040933 -40.60302734 -1.72363281 C-35.36415475 -1.80375671 -30.12523504 -1.87410499 -24.8861351 -1.93757248 C-22.88373829 -1.96356819 -20.88138463 -1.99313284 -18.87909317 -2.02626419 C-16.0823475 -2.07194144 -13.28571963 -2.10511726 -10.48876953 -2.13525391 C-9.65439362 -2.1517952 -8.8200177 -2.16833649 -7.96035767 -2.18537903 C-2.22810432 -2.22810432 -2.22810432 -2.22810432 0 0 Z " fill="#090A09" transform="translate(475,418)"/>
<path d="M0 0 C-1 2 -1 2 -3 2.6875 C-7.09343723 3.11389971 -10.94019216 2.57491832 -15 2 C-15 1.67 -15 1.34 -15 1 C-9.9752761 0.37470103 -5.07471573 -0.13012092 0 0 Z " fill="#000000" transform="translate(417,418)"/>
<path d="M0 0 C3.96 0 7.92 0 12 0 C12 0.33 12 0.66 12 1 C8.04 1 4.08 1 0 1 C0 0.67 0 0.34 0 0 Z " fill="#000000" transform="translate(389,419)"/>
<path d="M0 0 C2.64 0 5.28 0 8 0 C8 0.33 8 0.66 8 1 C5.36 1 2.72 1 0 1 C0 0.67 0 0.34 0 0 Z " fill="#000000" transform="translate(453,419)"/>
<path d="M0 0 C1.65 0 3.3 0 5 0 C5 0.33 5 0.66 5 1 C3.35 1 1.7 1 0 1 C0 0.67 0 0.34 0 0 Z " fill="#000000" transform="translate(123,426)"/>
<path d="M0 0 C0.99 0.33 1.98 0.66 3 1 C2.01 1 1.02 1 0 1 C0 0.67 0 0.34 0 0 Z " fill="#000000" transform="translate(315,332)"/>
<path d="M0 0 C0.66 0.33 1.32 0.66 2 1 C1.01 1 0.02 1 -1 1 C-0.67 0.67 -0.34 0.34 0 0 Z " fill="#000000" transform="translate(336,63)"/>
<path d="M0 0 C3 1 3 1 3 1 Z " fill="#000000" transform="translate(108,425)"/>
<path d="M0 0 C0.66 0.66 1.32 1.32 2 2 C1.34 2 0.68 2 0 2 C0 1.34 0 0.68 0 0 Z " fill="#000000" transform="translate(464,401)"/>
<path d="M0 0 C0.66 0.66 1.32 1.32 2 2 C1.34 2 0.68 2 0 2 C0 1.34 0 0.68 0 0 Z " fill="#000000" transform="translate(446,377)"/>
<path d="M0 0 C3 1 3 1 3 1 Z " fill="#090909" transform="translate(138,365)"/>
<path d="M0 0 C0.99 0.495 0.99 0.495 2 1 C1.01 1.495 1.01 1.495 0 2 C0 1.34 0 0.68 0 0 Z " fill="#000000" transform="translate(415,338)"/>
<path d="M0 0 C3 1 3 1 3 1 Z " fill="#000000" transform="translate(413,336)"/>
<path d="M0 0 C0.66 0 1.32 0 2 0 C1.67 0.66 1.34 1.32 1 2 C0.67 1.34 0.34 0.68 0 0 Z " fill="#000000" transform="translate(321,220)"/>
<path d="" fill="#000000" transform="translate(0,0)"/>
<path d="M0 0 C0.66 0.66 1.32 1.32 2 2 C1.34 2 0.68 2 0 2 C0 1.34 0 0.68 0 0 Z " fill="#000000" transform="translate(251,164)"/>
<path d="M0 0 C3 1 3 1 3 1 Z " fill="#000000" transform="translate(354,140)"/>
<path d="M0 0 C0.99 0.495 0.99 0.495 2 1 C1.01 1.495 1.01 1.495 0 2 C0 1.34 0 0.68 0 0 Z " fill="#000000" transform="translate(324,77)"/>
<path d="M0 0 C2 1 2 1 2 1 Z " fill="#000000" transform="translate(450,419)"/>
<path d="M0 0 C2 1 2 1 2 1 Z " fill="#000000" transform="translate(371,406)"/>
<path d="M0 0 C2 1 2 1 2 1 Z " fill="#000000" transform="translate(52,404)"/>
<path d="" fill="#000000" transform="translate(0,0)"/>
<path d="" fill="#000000" transform="translate(0,0)"/>
<path d="M0 0 C2 1 2 1 2 1 Z " fill="#000000" transform="translate(117,367)"/>
<path d="" fill="#000000" transform="translate(0,0)"/>
<path d="" fill="#000000" transform="translate(0,0)"/>
<path d="" fill="#000000" transform="translate(0,0)"/>
<path d="" fill="#000000" transform="translate(0,0)"/>
<path d="M0 0 C2 1 2 1 2 1 Z " fill="#000000" transform="translate(464,328)"/>
<path d="" fill="#000000" transform="translate(0,0)"/>
<path d="M0 0 C2 1 2 1 2 1 Z " fill="#000000" transform="translate(302,315)"/>
<path d="" fill="#000000" transform="translate(0,0)"/>
<path d="" fill="#000000" transform="translate(0,0)"/>
<path d="" fill="#000000" transform="translate(0,0)"/>
<path d="" fill="#000000" transform="translate(0,0)"/>
<path d="" fill="#000000" transform="translate(0,0)"/>
<path d="" fill="#000000" transform="translate(0,0)"/>
<path d="" fill="#000000" transform="translate(0,0)"/>
<path d="" fill="#000000" transform="translate(0,0)"/>
<path d="M0 0 C2 1 2 1 2 1 Z " fill="#000000" transform="translate(302,103)"/>
<path d="" fill="#000000" transform="translate(0,0)"/>
<path d="M0 0 C2 1 2 1 2 1 Z " fill="#000000" transform="translate(315,88)"/>
<path d="M0 0 C2 1 2 1 2 1 Z " fill="#000000" transform="translate(415,74)"/>
<path d="" fill="#000000" transform="translate(0,0)"/>
<path d="M0 0 C2 1 2 1 2 1 Z " fill="#2A2A2A" transform="translate(415,26)"/>
<path d="" fill="#000000" transform="translate(0,0)"/>
<path d="" fill="#000000" transform="translate(0,0)"/>
<path d="" fill="#000000" transform="translate(0,0)"/>
<path d="" fill="#000000" transform="translate(0,0)"/>
<path d="" fill="#000000" transform="translate(0,0)"/>
<path d="" fill="#000000" transform="translate(0,0)"/>
<path d="" fill="#000000" transform="translate(0,0)"/>
<path d="" fill="#000000" transform="translate(0,0)"/>
<path d="" fill="#000000" transform="translate(0,0)"/>
<path d="" fill="#000000" transform="translate(0,0)"/>
<path d="" fill="#000000" transform="translate(0,0)"/>
<path d="" fill="#000000" transform="translate(0,0)"/>
<path d="" fill="#000000" transform="translate(0,0)"/>
<path d="" fill="#000000" transform="translate(0,0)"/>
<path d="" fill="#000000" transform="translate(0,0)"/>
<path d="" fill="#000000" transform="translate(0,0)"/>
<path d="" fill="#000000" transform="translate(0,0)"/>
<path d="" fill="#000000" transform="translate(0,0)"/>
<path d="" fill="#000000" transform="translate(0,0)"/>
<path d="" fill="#000000" transform="translate(0,0)"/>
<path d="" fill="#000000" transform="translate(0,0)"/>
<path d="" fill="#000000" transform="translate(0,0)"/>
<path d="" fill="#000000" transform="translate(0,0)"/>
<path d="" fill="#000000" transform="translate(0,0)"/>
<path d="" fill="#000000" transform="translate(0,0)"/>
<path d="" fill="#000000" transform="translate(0,0)"/>
<path d="" fill="#000000" transform="translate(0,0)"/>
<path d="" fill="#000000" transform="translate(0,0)"/>
<path d="" fill="#000000" transform="translate(0,0)"/>
<path d="" fill="#000000" transform="translate(0,0)"/>
<path d="" fill="#000000" transform="translate(0,0)"/>
<path d="" fill="#000000" transform="translate(0,0)"/>
<path d="" fill="#000000" transform="translate(0,0)"/>
<path d="" fill="#000000" transform="translate(0,0)"/>
<path d="" fill="#000000" transform="translate(0,0)"/>
<path d="" fill="#000000" transform="translate(0,0)"/>
<path d="" fill="#000000" transform="translate(0,0)"/>
<path d="" fill="#000000" transform="translate(0,0)"/>
<path d="" fill="#000000" transform="translate(0,0)"/>
<path d="" fill="#000000" transform="translate(0,0)"/>
<path d="" fill="#000000" transform="translate(0,0)"/>
<path d="" fill="#000000" transform="translate(0,0)"/>
<path d="" fill="#000000" transform="translate(0,0)"/>
<path d="" fill="#000000" transform="translate(0,0)"/>
<path d="" fill="#000000" transform="translate(0,0)"/>
<path d="" fill="#000000" transform="translate(0,0)"/>
<path d="" fill="#000000" transform="translate(0,0)"/>
<path d="" fill="#000000" transform="translate(0,0)"/>
<path d="" fill="#000000" transform="translate(0,0)"/>
<path d="" fill="#000000" transform="translate(0,0)"/>
<path d="" fill="#000000" transform="translate(0,0)"/>
<path d="" fill="#000000" transform="translate(0,0)"/>
<path d="" fill="#000000" transform="translate(0,0)"/>
<path d="" fill="#000000" transform="translate(0,0)"/>
<path d="" fill="#000000" transform="translate(0,0)"/>
<path d="" fill="#000000" transform="translate(0,0)"/>
<path d="" fill="#000000" transform="translate(0,0)"/>
<path d="" fill="#000000" transform="translate(0,0)"/>
<path d="" fill="#000000" transform="translate(0,0)"/>
<path d="" fill="#000000" transform="translate(0,0)"/>
<path d="" fill="#000000" transform="translate(0,0)"/>
<path d="" fill="#000000" transform="translate(0,0)"/>
<path d="" fill="#000000" transform="translate(0,0)"/>
<path d="" fill="#000000" transform="translate(0,0)"/>
<path d="" fill="#000000" transform="translate(0,0)"/>
<path d="" fill="#000000" transform="translate(0,0)"/>
<path d="" fill="#000000" transform="translate(0,0)"/>
<path d="" fill="#000000" transform="translate(0,0)"/>
<path d="" fill="#000000" transform="translate(0,0)"/>
<path d="" fill="#000000" transform="translate(0,0)"/>
<path d="" fill="#000000" transform="translate(0,0)"/>
<path d="" fill="#000000" transform="translate(0,0)"/>
<path d="" fill="#000000" transform="translate(0,0)"/>
<path d="" fill="#000000" transform="translate(0,0)"/>
<path d="" fill="#000000" transform="translate(0,0)"/>
<path d="" fill="#000000" transform="translate(0,0)"/>
<path d="" fill="#000000" transform="translate(0,0)"/>
<path d="" fill="#000000" transform="translate(0,0)"/>
<path d="" fill="#000000" transform="translate(0,0)"/>
<path d="" fill="#000000" transform="translate(0,0)"/>
<path d="" fill="#000000" transform="translate(0,0)"/>
<path d="" fill="#000000" transform="translate(0,0)"/>
<path d="" fill="#000000" transform="translate(0,0)"/>
<path d="" fill="#000000" transform="translate(0,0)"/>
<path d="" fill="#000000" transform="translate(0,0)"/>
<path d="" fill="#000000" transform="translate(0,0)"/>
<path d="" fill="#000000" transform="translate(0,0)"/>
<path d="" fill="#000000" transform="translate(0,0)"/>
<path d="" fill="#000000" transform="translate(0,0)"/>
<path d="" fill="#000000" transform="translate(0,0)"/>
<path d="" fill="#000000" transform="translate(0,0)"/>
<path d="" fill="#000000" transform="translate(0,0)"/>
<path d="" fill="#000000" transform="translate(0,0)"/>
<path d="" fill="#000000" transform="translate(0,0)"/>
<path d="" fill="#000000" transform="translate(0,0)"/>
<path d="" fill="#000000" transform="translate(0,0)"/>
<path d="" fill="#000000" transform="translate(0,0)"/>
<path d="" fill="#000000" transform="translate(0,0)"/>
<path d="" fill="#000000" transform="translate(0,0)"/>
<path d="" fill="#000000" transform="translate(0,0)"/>
<path d="" fill="#000000" transform="translate(0,0)"/>
<path d="" fill="#000000" transform="translate(0,0)"/>
<path d="" fill="#000000" transform="translate(0,0)"/>
<path d="" fill="#000000" transform="translate(0,0)"/>
<path d="" fill="#000000" transform="translate(0,0)"/>
<path d="" fill="#000000" transform="translate(0,0)"/>
<path d="" fill="#000000" transform="translate(0,0)"/>
<path d="" fill="#000000" transform="translate(0,0)"/>
<path d="" fill="#000000" transform="translate(0,0)"/>
<path d="" fill="#000000" transform="translate(0,0)"/>
<path d="" fill="#000000" transform="translate(0,0)"/>
<path d="" fill="#000000" transform="translate(0,0)"/>
<path d="" fill="#000000" transform="translate(0,0)"/>
<path d="" fill="#000000" transform="translate(0,0)"/>
<path d="" fill="#000000" transform="translate(0,0)"/>
<path d="" fill="#000000" transform="translate(0,0)"/>
<path d="" fill="#000000" transform="translate(0,0)"/>
<path d="" fill="#000000" transform="translate(0,0)"/>
<path d="" fill="#000000" transform="translate(0,0)"/>
<path d="" fill="#000000" transform="translate(0,0)"/>
<path d="" fill="#000000" transform="translate(0,0)"/>
<path d="" fill="#000000" transform="translate(0,0)"/>
<path d="" fill="#000000" transform="translate(0,0)"/>
<path d="" fill="#000000" transform="translate(0,0)"/>
<path d="" fill="#000000" transform="translate(0,0)"/>
<path d="" fill="#000000" transform="translate(0,0)"/>
<path d="" fill="#000000" transform="translate(0,0)"/>
<path d="" fill="#000000" transform="translate(0,0)"/>
<path d="" fill="#000000" transform="translate(0,0)"/>
<path d="" fill="#000000" transform="translate(0,0)"/>
<path d="" fill="#000000" transform="translate(0,0)"/>
<path d="" fill="#000000" transform="translate(0,0)"/>
<path d="" fill="#000000" transform="translate(0,0)"/>
<path d="" fill="#000000" transform="translate(0,0)"/>
<path d="" fill="#000000" transform="translate(0,0)"/>
<path d="" fill="#000000" transform="translate(0,0)"/>
<path d="" fill="#000000" transform="translate(0,0)"/>
<path d="" fill="#000000" transform="translate(0,0)"/>
<path d="" fill="#000000" transform="translate(0,0)"/>
<path d="" fill="#000000" transform="translate(0,0)"/>
<path d="" fill="#000000" transform="translate(0,0)"/>
<path d="" fill="#000000" transform="translate(0,0)"/>
<path d="" fill="#000000" transform="translate(0,0)"/>
<path d="" fill="#000000" transform="translate(0,0)"/>
<path d="" fill="#000000" transform="translate(0,0)"/>
<path d="" fill="#000000" transform="translate(0,0)"/>
<path d="" fill="#000000" transform="translate(0,0)"/>
<path d="" fill="#000000" transform="translate(0,0)"/>
<path d="" fill="#000000" transform="translate(0,0)"/>
<path d="" fill="#000000" transform="translate(0,0)"/>
<path d="" fill="#000000" transform="translate(0,0)"/>
<path d="" fill="#000000" transform="translate(0,0)"/>
<path d="" fill="#000000" transform="translate(0,0)"/>
<path d="" fill="#000000" transform="translate(0,0)"/>
<path d="" fill="#000000" transform="translate(0,0)"/>
<path d="" fill="#000000" transform="translate(0,0)"/>
<path d="" fill="#000000" transform="translate(0,0)"/>
<path d="" fill="#000000" transform="translate(0,0)"/>
<path d="" fill="#000000" transform="translate(0,0)"/>
<path d="" fill="#000000" transform="translate(0,0)"/>
<path d="" fill="#000000" transform="translate(0,0)"/>
<path d="" fill="#000000" transform="translate(0,0)"/>
<path d="" fill="#000000" transform="translate(0,0)"/>
<path d="" fill="#000000" transform="translate(0,0)"/>
<path d="" fill="#000000" transform="translate(0,0)"/>
<path d="" fill="#000000" transform="translate(0,0)"/>
<path d="" fill="#000000" transform="translate(0,0)"/>
<path d="" fill="#000000" transform="translate(0,0)"/>
<path d="" fill="#000000" transform="translate(0,0)"/>
<path d="" fill="#000000" transform="translate(0,0)"/>
<path d="" fill="#000000" transform="translate(0,0)"/>
<path d="" fill="#000000" transform="translate(0,0)"/>
<path d="" fill="#000000" transform="translate(0,0)"/>
<path d="" fill="#000000" transform="translate(0,0)"/>
<path d="" fill="#000000" transform="translate(0,0)"/>
<path d="" fill="#000000" transform="translate(0,0)"/>
<path d="" fill="#000000" transform="translate(0,0)"/>
<path d="" fill="#000000" transform="translate(0,0)"/>
<path d="" fill="#000000" transform="translate(0,0)"/>
<path d="" fill="#000000" transform="translate(0,0)"/>
<path d="" fill="#000000" transform="translate(0,0)"/>
<path d="" fill="#000000" transform="translate(0,0)"/>
<path d="" fill="#000000" transform="translate(0,0)"/>
<path d="" fill="#000000" transform="translate(0,0)"/>
<path d="" fill="#000000" transform="translate(0,0)"/>
<path d="" fill="#000000" transform="translate(0,0)"/>
<path d="" fill="#000000" transform="translate(0,0)"/>
<path d="" fill="#000000" transform="translate(0,0)"/>
<path d="" fill="#000000" transform="translate(0,0)"/>
<path d="" fill="#000000" transform="translate(0,0)"/>
<path d="" fill="#000000" transform="translate(0,0)"/>
<path d="" fill="#000000" transform="translate(0,0)"/>
<path d="" fill="#000000" transform="translate(0,0)"/>
<path d="" fill="#000000" transform="translate(0,0)"/>
<path d="" fill="#000000" transform="translate(0,0)"/>
<path d="" fill="#000000" transform="translate(0,0)"/>
<path d="" fill="#000000" transform="translate(0,0)"/>
<path d="" fill="#000000" transform="translate(0,0)"/>
<path d="" fill="#000000" transform="translate(0,0)"/>
<path d="" fill="#000000" transform="translate(0,0)"/>
<path d="" fill="#000000" transform="translate(0,0)"/>
<path d="" fill="#000000" transform="translate(0,0)"/>
<path d="" fill="#000000" transform="translate(0,0)"/>
<path d="" fill="#000000" transform="translate(0,0)"/>
<path d="" fill="#000000" transform="translate(0,0)"/>
<path d="" fill="#000000" transform="translate(0,0)"/>
<path d="" fill="#000000" transform="translate(0,0)"/>
<path d="" fill="#000000" transform="translate(0,0)"/>
<path d="" fill="#000000" transform="translate(0,0)"/>
<path d="" fill="#000000" transform="translate(0,0)"/>
<path d="" fill="#000000" transform="translate(0,0)"/>
<path d="" fill="#000000" transform="translate(0,0)"/>
<path d="" fill="#000000" transform="translate(0,0)"/>
<path d="" fill="#000000" transform="translate(0,0)"/>
<path d="" fill="#000000" transform="translate(0,0)"/>
<path d="" fill="#000000" transform="translate(0,0)"/>
<path d="" fill="#000000" transform="translate(0,0)"/>
<path d="" fill="#000000" transform="translate(0,0)"/>
<path d="" fill="#000000" transform="translate(0,0)"/>
<path d="" fill="#000000" transform="translate(0,0)"/>
<path d="" fill="#000000" transform="translate(0,0)"/>
<path d="" fill="#000000" transform="translate(0,0)"/>
<path d="" fill="#000000" transform="translate(0,0)"/>
<path d="" fill="#000000" transform="translate(0,0)"/>
<path d="" fill="#000000" transform="translate(0,0)"/>
<path d="" fill="#000000" transform="translate(0,0)"/>
<path d="" fill="#000000" transform="translate(0,0)"/>
<path d="" fill="#000000" transform="translate(0,0)"/>
<path d="" fill="#000000" transform="translate(0,0)"/>
<path d="" fill="#000000" transform="translate(0,0)"/>
<path d="" fill="#000000" transform="translate(0,0)"/>
<path d="" fill="#000000" transform="translate(0,0)"/>
<path d="" fill="#000000" transform="translate(0,0)"/>
<path d="" fill="#000000" transform="translate(0,0)"/>
<path d="" fill="#000000" transform="translate(0,0)"/>
<path d="" fill="#000000" transform="translate(0,0)"/>
<path d="" fill="#000000" transform="translate(0,0)"/>
<path d="" fill="#000000" transform="translate(0,0)"/>
<path d="" fill="#000000" transform="translate(0,0)"/>
<path d="" fill="#000000" transform="translate(0,0)"/>
<path d="" fill="#000000" transform="translate(0,0)"/>
<path d="" fill="#000000" transform="translate(0,0)"/>
<path d="" fill="#000000" transform="translate(0,0)"/>
<path d="" fill="#000000" transform="translate(0,0)"/>
<path d="" fill="#000000" transform="translate(0,0)"/>
<path d="" fill="#000000" transform="translate(0,0)"/>
<path d="" fill="#000000" transform="translate(0,0)"/>
<path d="" fill="#000000" transform="translate(0,0)"/>
<path d="" fill="#000000" transform="translate(0,0)"/>
<path d="" fill="#000000" transform="translate(0,0)"/>
<path d="" fill="#000000" transform="translate(0,0)"/>
<path d="" fill="#000000" transform="translate(0,0)"/>
<path d="" fill="#000000" transform="translate(0,0)"/>
<path d="" fill="#000000" transform="translate(0,0)"/>
<path d="" fill="#000000" transform="translate(0,0)"/>
<path d="" fill="#000000" transform="translate(0,0)"/>
<path d="" fill="#000000" transform="translate(0,0)"/>
<path d="" fill="#000000" transform="translate(0,0)"/>
<path d="" fill="#000000" transform="translate(0,0)"/>
<path d="" fill="#000000" transform="translate(0,0)"/>
<path d="" fill="#000000" transform="translate(0,0)"/>
<path d="" fill="#000000" transform="translate(0,0)"/>
<path d="" fill="#000000" transform="translate(0,0)"/>
<path d="" fill="#000000" transform="translate(0,0)"/>
<path d="" fill="#000000" transform="translate(0,0)"/>
<path d="" fill="#000000" transform="translate(0,0)"/>
<path d="" fill="#000000" transform="translate(0,0)"/>
<path d="" fill="#000000" transform="translate(0,0)"/>
<path d="" fill="#000000" transform="translate(0,0)"/>
<path d="" fill="#000000" transform="translate(0,0)"/>
<path d="" fill="#000000" transform="translate(0,0)"/>
<path d="" fill="#000000" transform="translate(0,0)"/>
<path d="" fill="#000000" transform="translate(0,0)"/>
<path d="" fill="#000000" transform="translate(0,0)"/>
<path d="" fill="#000000" transform="translate(0,0)"/>
<path d="" fill="#000000" transform="translate(0,0)"/>
<path d="" fill="#000000" transform="translate(0,0)"/>
<path d="" fill="#000000" transform="translate(0,0)"/>
<path d="" fill="#000000" transform="translate(0,0)"/>
<path d="" fill="#000000" transform="translate(0,0)"/>
<path d="" fill="#000000" transform="translate(0,0)"/>
<path d="" fill="#000000" transform="translate(0,0)"/>
<path d="" fill="#000000" transform="translate(0,0)"/>
<path d="" fill="#000000" transform="translate(0,0)"/>
<path d="" fill="#000000" transform="translate(0,0)"/>
<path d="" fill="#000000" transform="translate(0,0)"/>
<path d="" fill="#000000" transform="translate(0,0)"/>
<path d="" fill="#000000" transform="translate(0,0)"/>
<path d="" fill="#000000" transform="translate(0,0)"/>
<path d="" fill="#000000" transform="translate(0,0)"/>
<path d="" fill="#000000" transform="translate(0,0)"/>
<path d="" fill="#000000" transform="translate(0,0)"/>
<path d="" fill="#000000" transform="translate(0,0)"/>
<path d="" fill="#000000" transform="translate(0,0)"/>
<path d="" fill="#000000" transform="translate(0,0)"/>
<path d="" fill="#000000" transform="translate(0,0)"/>
<path d="" fill="#000000" transform="translate(0,0)"/>
<path d="" fill="#000000" transform="translate(0,0)"/>
<path d="" fill="#000000" transform="translate(0,0)"/>
<path d="" fill="#000000" transform="translate(0,0)"/>
<path d="" fill="#000000" transform="translate(0,0)"/>
<path d="" fill="#000000" transform="translate(0,0)"/>
<path d="" fill="#000000" transform="translate(0,0)"/>
<path d="" fill="#000000" transform="translate(0,0)"/>
<path d="" fill="#000000" transform="translate(0,0)"/>
<path d="" fill="#000000" transform="translate(0,0)"/>
<path d="" fill="#000000" transform="translate(0,0)"/>
<path d="" fill="#000000" transform="translate(0,0)"/>
<path d="" fill="#000000" transform="translate(0,0)"/>
<path d="" fill="#000000" transform="translate(0,0)"/>
<path d="" fill="#000000" transform="translate(0,0)"/>
<path d="" fill="#000000" transform="translate(0,0)"/>
<path d="" fill="#000000" transform="translate(0,0)"/>
<path d="" fill="#000000" transform="translate(0,0)"/>
<path d="" fill="#000000" transform="translate(0,0)"/>
<path d="" fill="#000000" transform="translate(0,0)"/>
<path d="" fill="#000000" transform="translate(0,0)"/>
<path d="" fill="#000000" transform="translate(0,0)"/>
<path d="" fill="#000000" transform="translate(0,0)"/>
<path d="" fill="#000000" transform="translate(0,0)"/>
<path d="" fill="#000000" transform="translate(0,0)"/>
<path d="" fill="#000000" transform="translate(0,0)"/>
<path d="" fill="#000000" transform="translate(0,0)"/>
<path d="" fill="#000000" transform="translate(0,0)"/>
<path d="" fill="#000000" transform="translate(0,0)"/>
<path d="" fill="#000000" transform="translate(0,0)"/>
<path d="" fill="#000000" transform="translate(0,0)"/>
<path d="" fill="#000000" transform="translate(0,0)"/>
<path d="" fill="#000000" transform="translate(0,0)"/>
<path d="" fill="#000000" transform="translate(0,0)"/>
<path d="" fill="#000000" transform="translate(0,0)"/>
<path d="" fill="#000000" transform="translate(0,0)"/>
<path d="" fill="#000000" transform="translate(0,0)"/>
<path d="" fill="#000000" transform="translate(0,0)"/>
<path d="" fill="#000000" transform="translate(0,0)"/>
<path d="" fill="#000000" transform="translate(0,0)"/>
<path d="" fill="#000000" transform="translate(0,0)"/>
<path d="" fill="#000000" transform="translate(0,0)"/>
<path d="" fill="#000000" transform="translate(0,0)"/>
<path d="" fill="#000000" transform="translate(0,0)"/>
<path d="" fill="#000000" transform="translate(0,0)"/>
<path d="" fill="#000000" transform="translate(0,0)"/>
<path d="" fill="#000000" transform="translate(0,0)"/>
<path d="" fill="#000000" transform="translate(0,0)"/>
<path d="" fill="#000000" transform="translate(0,0)"/>
<path d="" fill="#000000" transform="translate(0,0)"/>
<path d="" fill="#000000" transform="translate(0,0)"/>
<path d="" fill="#000000" transform="translate(0,0)"/>
<path d="" fill="#000000" transform="translate(0,0)"/>
<path d="" fill="#000000" transform="translate(0,0)"/>
<path d="" fill="#000000" transform="translate(0,0)"/>
<path d="" fill="#000000" transform="translate(0,0)"/>
<path d="" fill="#000000" transform="translate(0,0)"/>
<path d="" fill="#000000" transform="translate(0,0)"/>
<path d="" fill="#000000" transform="translate(0,0)"/>
<path d="" fill="#000000" transform="translate(0,0)"/>
<path d="" fill="#000000" transform="translate(0,0)"/>
<path d="" fill="#000000" transform="translate(0,0)"/>
<path d="" fill="#000000" transform="translate(0,0)"/>
<path d="" fill="#000000" transform="translate(0,0)"/>
<path d="" fill="#000000" transform="translate(0,0)"/>
<path d="" fill="#000000" transform="translate(0,0)"/>
<path d="" fill="#000000" transform="translate(0,0)"/>
<path d="" fill="#000000" transform="translate(0,0)"/>
<path d="" fill="#000000" transform="translate(0,0)"/>
<path d="" fill="#000000" transform="translate(0,0)"/>
<path d="" fill="#000000" transform="translate(0,0)"/>
<path d="" fill="#000000" transform="translate(0,0)"/>
<path d="" fill="#000000" transform="translate(0,0)"/>
<path d="" fill="#000000" transform="translate(0,0)"/>
<path d="" fill="#000000" transform="translate(0,0)"/>
<path d="" fill="#000000" transform="translate(0,0)"/>
<path d="" fill="#000000" transform="translate(0,0)"/>
<path d="" fill="#000000" transform="translate(0,0)"/>
<path d="" fill="#000000" transform="translate(0,0)"/>
<path d="" fill="#000000" transform="translate(0,0)"/>
</svg>
